<?xml version="1.0" standalone="no"?>
<!DOCTYPE svg PUBLIC "-//W3C//DTD SVG 20010904//EN"
 "http://www.w3.org/TR/2001/REC-SVG-20010904/DTD/svg10.dtd">
<svg version="1.0" xmlns="http://www.w3.org/2000/svg"
 width="700.000000pt" height="700.000000pt" viewBox="0 0 700.000000 700.000000"
 preserveAspectRatio="xMidYMid meet">
<metadata>
Created by potrace 1.11, written by Peter Selinger 2001-2013
</metadata>
<g transform="translate(0.000000,700.000000) scale(0.100000,-0.100000)"
fill="#000000" stroke="none">
<path d="M1077 6564 c-1 -1 -37 -4 -79 -8 -367 -31 -690 -329 -762 -702 -15
-78 -16 -274 -2 -339 45 -206 163 -394 328 -521 61 -48 210 -126 273 -144 121
-34 302 -46 405 -26 180 34 334 114 459 236 123 120 204 260 247 430 27 106
25 305 -4 412 -99 367 -402 623 -777 656 -47 4 -87 7 -88 6z"/>
<path d="M6580 6000 c-39 -8 -261 -50 -300 -56 -14 -2 -45 -9 -70 -14 -25 -5
-58 -12 -75 -15 -16 -3 -41 -7 -55 -10 -23 -5 -92 -17 -165 -30 -28 -5 -47 -8
-105 -20 -14 -2 -38 -7 -55 -10 -16 -3 -41 -7 -55 -10 -14 -3 -41 -8 -60 -11
-54 -9 -151 -32 -157 -38 -3 -2 9 -19 25 -38 16 -18 62 -71 102 -118 40 -47
83 -97 96 -112 19 -22 21 -29 10 -35 -8 -4 -29 -21 -48 -38 -18 -16 -62 -55
-98 -85 -36 -30 -67 -57 -70 -60 -3 -3 -48 -41 -100 -85 -52 -44 -100 -84
-106 -90 -43 -39 -88 -77 -144 -125 -36 -30 -67 -57 -70 -60 -3 -3 -32 -28
-65 -55 -33 -28 -64 -55 -70 -61 -5 -6 -71 -62 -145 -125 -74 -62 -137 -116
-140 -119 -3 -3 -48 -41 -100 -85 -52 -44 -108 -92 -125 -107 -82 -73 -100
-86 -105 -83 -3 2 -242 107 -531 233 -288 126 -544 239 -569 250 -25 11 -115
50 -200 87 -85 37 -173 76 -195 86 -144 63 -229 99 -236 99 -8 0 -171 -118
-504 -365 -38 -28 -122 -89 -185 -135 -63 -46 -155 -114 -205 -150 -49 -37
-252 -185 -450 -330 -198 -144 -368 -271 -379 -280 -17 -17 -14 -23 90 -166
60 -82 114 -155 120 -161 7 -7 14 -18 17 -25 3 -11 9 -11 26 0 19 11 576 417
846 617 230 170 631 463 656 479 26 17 29 16 195 -58 93 -41 331 -144 529
-231 198 -86 378 -164 400 -174 22 -10 146 -65 275 -121 129 -56 263 -115 297
-131 34 -15 68 -29 76 -31 8 -2 153 116 323 262 170 146 319 274 333 285 13
11 29 25 35 30 6 6 124 107 261 224 138 118 264 225 280 240 17 14 93 80 170
145 77 66 154 133 171 148 36 33 30 36 105 -52 157 -186 187 -217 193 -200 11
34 151 434 192 550 25 69 47 132 49 140 4 14 136 387 150 423 6 14 2 17 -21
16 -16 -1 -45 -5 -64 -9z"/>
<path d="M5584 4258 c-3 -5 -7 -2670 -4 -3313 l0 -70 437 0 436 0 0 1665 c-1
916 -2 1679 -2 1695 l-1 31 -431 -1 c-237 0 -433 -3 -435 -7z"/>
<path d="M2189 3682 c0 -46 0 -2760 0 -2787 1 -20 7 -20 430 -20 236 0 433 3
437 7 5 6 10 2715 5 2820 -1 15 -37 16 -436 16 l-435 1 -1 -37z"/>
<path d="M4026 3280 l-89 -5 -1 -1197 c-1 -791 2 -1199 9 -1201 9 -3 853 -1
865 2 6 1 4 2390 -3 2397 -6 7 -671 10 -781 4z"/>
<path d="M549 2725 c-5 -65 0 -1837 5 -1842 4 -5 201 -8 437 -8 l429 0 0 145
c3 852 1 1703 -5 1708 -11 11 -865 8 -866 -3z"/>
<path d="M224 651 c-2 -2 -4 -51 -4 -108 0 -75 3 -103 13 -104 48 -3 6538 -1
6541 2 5 4 8 87 7 164 l-1 50 -3276 1 c-1801 0 -3277 -2 -3280 -5z"/>
</g>
</svg>
